<?xml version="1.0" standalone="no"?>
<!DOCTYPE svg PUBLIC "-//W3C//DTD SVG 1.1//EN" "http://www.w3.org/Graphics/SVG/1.1/DTD/svg11.dtd" >
<svg xmlns="http://www.w3.org/2000/svg">
<metadata>Generated by IcoMoon</metadata>
<defs>
<font id="icomoon" horiz-adv-x="1024">
<font-face units-per-em="1024" ascent="960" descent="-64" />
<missing-glyph horiz-adv-x="1024" />
<glyph unicode="&#x20;" horiz-adv-x="512" d="" />
<glyph unicode="&#xe800;" glyph-name="users" horiz-adv-x="1152" d="M768 189.388v52.78c70.498 39.728 128 138.772 128 237.832 0 159.058 0 288-192 288s-192-128.942-192-288c0-99.060 57.502-198.104 128-237.832v-52.78c-217.102-17.748-384-124.42-384-253.388h896c0 128.968-166.898 235.64-384 253.388zM327.196 164.672c55.31 36.15 124.080 63.636 199.788 80.414-15.054 17.784-28.708 37.622-40.492 59.020-30.414 55.234-46.492 116.058-46.492 175.894 0 86.042 0 167.31 30.6 233.762 29.706 64.504 83.128 104.496 159.222 119.488-16.914 76.48-61.94 126.75-181.822 126.75-192 0-192-128.942-192-288 0-99.060 57.502-198.104 128-237.832v-52.78c-217.102-17.748-384-124.42-384-253.388h279.006c14.518 12.91 30.596 25.172 48.19 36.672z" />
<glyph unicode="&#xe801;" glyph-name="arrow-down" d="M512 594.922l489.739 195.896-489.739-676.73-489.739 676.73 489.739-195.896z" />
<glyph unicode="&#xe802;" glyph-name="office" d="M0-64h512v1024h-512v-1024zM320 832h128v-128h-128v128zM320 576h128v-128h-128v128zM320 320h128v-128h-128v128zM64 832h128v-128h-128v128zM64 576h128v-128h-128v128zM64 320h128v-128h-128v128zM576 640h448v-64h-448zM576-64h128v256h192v-256h128v576h-448z" />
<glyph unicode="&#xe803;" glyph-name="home" d="M1024 369.556l-512 397.426-512-397.428v162.038l512 397.426 512-397.428zM896 384v-384h-256v256h-256v-256h-256v384l384 288z" />
<glyph unicode="&#xe804;" glyph-name="radio-unchecked" d="M1024 448c0-282.77-229.23-512-512-512s-512 229.23-512 512c0 282.77 229.23 512 512 512s512-229.23 512-512z" />
<glyph unicode="&#xe805;" d="M1024 448c0-282.77-229.23-512-512-512s-512 229.23-512 512c0 282.77 229.23 512 512 512s512-229.23 512-512z" />
<glyph unicode="&#xe806;" d="M814.748 448c0-167.203-135.545-302.748-302.748-302.748s-302.748 135.545-302.748 302.748c0 167.203 135.545 302.748 302.748 302.748s302.748-135.545 302.748-302.748z" />
<glyph unicode="&#xe807;" glyph-name="checkbox-unchecked" d="M0 960h1024v-1024h-1024v1024z" />
<glyph unicode="&#xe808;" d="M0 960h1024v-1024h-1024v1024z" />
<glyph unicode="&#xe809;" d="M877.078 630.539l-445.217-480.835-240.417 311.652 89.043 75.687 151.374-160.278 378.435 325.009z" />
<glyph unicode="&#xe80a;" glyph-name="open-menu" d="M35.617 176.417h948.313v-191.443h-948.313v191.443zM35.617 919.93h948.313v-191.443h-948.313v191.443zM31.165 550.4h948.313v-191.443h-948.313v191.443z" />
<glyph unicode="&#xe80b;" glyph-name="close-menu" d="M988.383 122.991l-338.365 333.913 329.461 329.461-142.47 138.017-325.009-325.009-325.009 320.557-138.017-138.017 325.009-325.009-338.365-333.913 142.47-138.017 333.913 333.913 338.365-333.913z" />
<glyph unicode="&#xe80c;" glyph-name="arrow-left" d="M658.922 448l195.896-489.739-676.73 489.739 676.73 489.739-195.896-489.739z" />
<glyph unicode="&#xe80d;" glyph-name="arrow-right" d="M365.078 448l-195.896 489.739 676.73-489.739-676.73-489.739 195.896 489.739z" />
<glyph unicode="&#xe80e;" glyph-name="arrow-up" d="M512 301.078l-489.739-195.896 489.739 676.73 489.739-676.73-489.739 195.896z" />
<glyph unicode="&#xe80f;" glyph-name="breadcrumb" d="M276.035 937.739l556.522-489.739-556.522-489.739c0 0 0 244.87 0 494.191 0 240.417 0 485.287 0 485.287z" />
<glyph unicode="&#xe810;" glyph-name="close" d="M1024 38.4l-409.6 409.6 409.6 409.6-102.4 102.4-409.6-409.6-409.6 409.6-102.4-102.4 409.6-409.6-409.6-409.6 102.4-102.4 409.6 409.6 409.6-409.6z" />
<glyph unicode="&#xe811;" glyph-name="dot" d="M512 937.739c271.583 0 489.739-218.157 489.739-489.739s-218.157-489.739-489.739-489.739-489.739 218.157-489.739 489.739c0 271.583 218.157 489.739 489.739 489.739z" />
<glyph unicode="&#xe812;" glyph-name="facebook" d="M543.165 20.591v391.791h120.209l17.809 151.374h-138.017v97.948c0 44.522 8.904 75.687 66.783 75.687h71.235v133.565c-13.357 0-57.878 4.452-106.852 4.452-106.852 0-178.087-71.235-178.087-200.348v-111.304h-120.209v-151.374h120.209v-391.791h146.922z" />
<glyph unicode="&#xe813;" glyph-name="googleplus" d="M8.904 439.096c4.452 164.73 155.826 311.652 320.557 302.748 80.139 4.452 151.374-31.165 213.704-80.139-26.713-31.165-53.426-57.878-80.139-84.591-71.235 48.974-178.087 66.783-249.322 4.452-102.4-71.235-106.852-240.417-8.904-320.557 97.948-89.043 280.487-44.522 307.2 89.043-62.33 0-120.209 0-182.539 0 0 35.617 0 71.235 0 111.304 102.4 0 204.8 0 307.2 0 4.452-84.591-4.452-178.087-57.878-249.322-80.139-111.304-240.417-146.922-365.078-97.948-124.661 57.878-213.704 186.991-204.8 325.009zM832.557 559.304c31.165 0 62.33 0 89.043 0 0-31.165 0-62.33 0-93.496 31.165 0 62.33 0 93.496 0 0-31.165 0-62.33 0-89.043-31.165 0-62.33 0-93.496 0 0-31.165 0-62.33 0-93.496-31.165 0-62.33 0-89.043 0 0 31.165 0 62.33 0 93.496-31.165 0-62.33 0-93.496 0 0 31.165 0 62.33 0 89.043 31.165 0 62.33 0 93.496 0 0 31.165 0 62.33 0 93.496z" />
<glyph unicode="&#xe814;" glyph-name="linkedin" d="M311.652 69.565h-160.278v503.096h160.278v-503.096zM227.061 639.443v0c-57.878 0-97.948 40.070-97.948 89.043s40.070 89.043 97.948 89.043c57.878 0 97.948-35.617 97.948-89.043s-40.070-89.043-97.948-89.043zM952.765 69.565h-182.539v262.678c0 66.783-26.713 115.757-89.043 115.757-48.974 0-75.687-31.165-89.043-62.33-4.452-8.904-4.452-26.713-4.452-40.070v-271.583h-182.539c0 0 4.452 463.026 0 503.096h182.539v-80.139c8.904 35.617 66.783 84.591 160.278 84.591 115.757 0 204.8-71.235 204.8-227.061v-284.939z" />
<glyph unicode="&#xe815;" glyph-name="location" d="M503.096-46.191l-35.617 40.070c-31.165 40.070-320.557 387.339-320.557 569.878 0 191.443 160.278 351.722 356.174 351.722s356.174-155.826 356.174-351.722c0-178.087-289.391-529.809-320.557-569.878l-35.617-40.070zM503.096 826.435c-146.922 0-267.13-115.757-267.13-262.678 0-111.304 169.183-347.27 267.13-471.93 97.948 124.661 267.13 360.626 267.13 471.93 0 146.922-120.209 262.678-267.13 262.678zM503.096 385.67c-93.496 0-173.635 75.687-173.635 173.635s75.687 173.635 173.635 173.635 173.635-75.687 173.635-173.635-75.687-173.635-173.635-173.635zM503.096 643.896c-44.522 0-84.591-35.617-84.591-84.591 0-44.522 35.617-84.591 84.591-84.591 44.522 0 84.591 35.617 84.591 84.591 0 44.522-35.617 84.591-84.591 84.591z" />
<glyph unicode="&#xe816;" glyph-name="phone" d="M798.72-28.16c-81.92 0-174.080 25.6-266.24 71.68-87.040 40.96-168.96 107.52-245.76 179.2-71.68 71.68-138.24 158.72-179.2 245.76-46.080 92.16-71.68 184.32-71.68 266.24 0 56.32 51.2 107.52 71.68 128 30.72 30.72 81.92 61.44 117.76 61.44 15.36 0 40.96-10.24 66.56-35.84 20.48-20.48 40.96-46.080 66.56-71.68 15.36-15.36 81.92-107.52 81.92-153.6 0-35.84-40.96-61.44-81.92-87.040-15.36-10.24-35.84-20.48-46.080-30.72-15.36-10.24-15.36-15.36-15.36-15.36 46.080-112.64 184.32-250.88 296.96-296.96 0 0 5.12 0 15.36 15.36 10.24 10.24 20.48 30.72 30.72 46.080 25.6 40.96 51.2 81.92 87.040 81.92 40.96 0 133.12-66.56 153.6-81.92 30.72-20.48 56.32-46.080 71.68-66.56 25.6-25.6 35.84-46.080 35.84-66.56 0-35.84-35.84-87.040-61.44-117.76-20.48-20.48-76.8-71.68-128-71.68v0zM225.28 872.96c-10.24 0-46.080-15.36-81.92-51.2-35.84-30.72-56.32-66.56-56.32-92.16 0-317.44 394.24-711.68 711.68-711.68 25.6 0 61.44 20.48 92.16 56.32 35.84 35.84 51.2 71.68 51.2 87.040 0 10.24-25.6 46.080-97.28 97.28-56.32 46.080-107.52 71.68-117.76 71.68 0 0-5.12 0-15.36-15.36-10.24-10.24-20.48-30.72-30.72-46.080-25.6-40.96-51.2-81.92-87.040-81.92-5.12 0-10.24 0-15.36 5.12-122.88 51.2-271.36 199.68-322.56 322.56-5.12 15.36-5.12 40.96 20.48 66.56 15.36 15.36 35.84 25.6 56.32 40.96 15.36 10.24 30.72 20.48 46.080 30.72s15.36 15.36 15.36 15.36c0 10.24-25.6 61.44-71.68 117.76-51.2 61.44-87.040 87.040-97.28 87.040v0zM798.72-43.52v0c-87.040 0-179.2 25.6-276.48 71.68-87.040 46.080-174.080 107.52-245.76 184.32-76.8 76.8-138.24 158.72-184.32 245.76-46.080 97.28-71.68 189.44-71.68 276.48 0 61.44 56.32 117.76 76.8 138.24 10.24 10.24 76.8 66.56 128 66.56 20.48 0 46.080-15.36 76.8-40.96 20.48-20.48 46.080-46.080 66.56-76.8 25.6-30.72 87.040-117.76 87.040-163.84s-46.080-71.68-92.16-102.4c-15.36-10.24-30.72-20.48-46.080-30.72-5.12 0-5.12-5.12-5.12-5.12 46.080-102.4 168.96-225.28 271.36-271.36 0 0 5.12 5.12 5.12 5.12 10.24 10.24 20.48 25.6 30.72 40.96 25.6 46.080 56.32 92.16 102.4 92.16s128-61.44 163.84-87.040c30.72-25.6 56.32-46.080 76.8-66.56 30.72-30.72 40.96-56.32 40.96-76.8 0-51.2-56.32-117.76-66.56-128-25.6-25.6-81.92-71.68-138.24-71.68zM225.28 903.68c-30.72 0-76.8-30.72-102.4-56.32-15.36-15.36-66.56-66.56-66.56-112.64 0-81.92 25.6-168.96 66.56-256 40.96-81.92 102.4-163.84 174.080-240.64 71.68-71.68 153.6-133.12 240.64-174.080 92.16-46.080 174.080-66.56 256-66.56v0c0 0 0 0 0 0 46.080 0 97.28 51.2 112.64 66.56 30.72 30.72 56.32 76.8 56.32 102.4 0 10.24-10.24 30.72-30.72 51.2s-40.96 40.96-71.68 61.44-112.64 76.8-138.24 76.8c-25.6 0-46.080-35.84-71.68-71.68-10.24-15.36-20.48-35.84-30.72-46.080s-20.48-20.48-25.6-20.48h-10.24c-117.76 46.080-256 189.44-307.2 307.2v10.24c0 5.12 10.24 15.36 20.48 25.6 15.36 10.24 30.72 20.48 46.080 30.72 35.84 25.6 71.68 46.080 71.68 71.68s-40.96 92.16-76.8 138.24c-20.48 30.72-46.080 51.2-61.44 71.68-20.48 20.48-35.84 30.72-51.2 30.72zM798.72 2.56c-327.68 0-727.040 404.48-727.040 732.16 0 30.72 25.6 66.56 61.44 107.52 25.6 20.48 51.2 40.96 71.68 51.2l-5.12 10.24 30.72-5.12c20.48-5.12 61.44-40.96 107.52-102.4 40.96-56.32 71.68-107.52 71.68-128v-10.24c0-5.12-10.24-15.36-20.48-25.6s-30.72-20.48-46.080-30.72c-20.48-15.36-40.96-25.6-56.32-40.96s-25.6-30.72-15.36-46.080c46.080-122.88 189.44-266.24 312.32-312.32 30.72-10.24 56.32 30.72 81.92 71.68 10.24 15.36 20.48 35.84 30.72 46.080 10.24 15.36 20.48 20.48 25.6 20.48v0h5.12c20.48 0 76.8-30.72 128-71.68 56.32-46.080 97.28-87.040 102.4-107.52 0-25.6-20.48-66.56-56.32-97.28-35.84-35.84-76.8-61.44-102.4-61.44zM225.28 857.6c-10.24 0-35.84-15.36-71.68-46.080s-51.2-61.44-51.2-76.8c0-312.32 384-696.32 696.32-696.32 15.36 0 46.080 15.36 76.8 51.2 30.72 30.72 40.96 61.44 46.080 71.68-5.12 10.24-25.6 40.96-87.040 87.040-51.2 40.96-92.16 61.44-102.4 66.56 0 0-5.12-5.12-5.12-10.24-10.24-10.24-20.48-25.6-25.6-40.96-30.72-46.080-56.32-92.16-102.4-92.16-10.24 0-15.36 0-25.6 5.12-128 51.2-281.6 204.8-332.8 332.8-5.12 15.36-10.24 51.2 25.6 87.040 15.36 15.36 40.96 30.72 61.44 40.96 15.36 10.24 30.72 20.48 40.96 25.6 5.12 5.12 5.12 5.12 10.24 5.12-5.12 15.36-25.6 51.2-66.56 102.4-51.2 56.32-76.8 81.92-87.040 87.040z" />
<glyph unicode="&#xe817;" glyph-name="pagination-left" d="M716.8 786.365l-71.235 66.783-418.504-414.052 418.504-418.504 71.235 71.235-347.27 347.27z" />
<glyph unicode="&#xe818;" glyph-name="pagination-right" d="M227.061 786.365l71.235 66.783 418.504-414.052-418.504-418.504-71.235 71.235 351.722 347.27z" />
<glyph unicode="&#xe81a;" glyph-name="gbp" d="M819.2-37.287v164.73h-391.791v227.061h151.374v133.565h-151.374v97.948c0 106.852 57.878 160.278 151.374 160.278 62.33 0 89.043-22.261 120.209-53.426l120.209 120.209c-71.235 71.235-138.017 97.948-240.417 97.948-173.635 0-333.913-111.304-333.913-316.104v-106.852h-80.139v-133.565h80.139v-391.791h574.33z" />
<glyph unicode="&#xe81b;" glyph-name="quote" d="M138.017 630.539c-71.235-71.235-111.304-151.374-124.661-235.965-13.357-71.235 0-133.565 35.617-182.539s84.591-75.687 142.47-75.687c44.522 0 89.043 13.357 124.661 44.522s57.878 62.33 66.783 102.4c4.452 35.617 0 66.783-22.261 93.496s-48.974 40.070-84.591 40.070c-13.357 0-31.165-4.452-53.426-8.904-17.809-4.452-35.617-8.904-44.522-8.904s-17.809 4.452-26.713 17.809c-4.452 8.904-8.904 31.165 0 62.33 8.904 48.974 31.165 97.948 71.235 138.017s97.948 84.591 182.539 120.209l8.904 53.426c-115.757-31.165-204.8-89.043-276.035-160.278zM747.965 634.991c-71.235-71.235-111.304-155.826-129.113-244.87-13.357-71.235 0-133.565 35.617-178.087 35.617-48.974 80.139-71.235 138.017-71.235 48.974 0 89.043 13.357 129.113 44.522s62.33 66.783 66.783 106.852c4.452 35.617 0 66.783-22.261 93.496s-48.974 35.617-84.591 35.617c-17.809 0-35.617-4.452-57.878-8.904-17.809-8.904-35.617-8.904-44.522-8.904s-17.809 4.452-26.713 17.809c-8.904 13.357-8.904 31.165-4.452 53.426 8.904 53.426 31.165 97.948 66.783 138.017s97.948 84.591 191.443 133.565l8.904 48.974c-106.852-35.617-200.348-89.043-267.13-160.278z" />
<glyph unicode="&#xe81c;" glyph-name="search" d="M823.652 91.826l-146.922 258.226c57.878 57.878 97.948 138.017 97.948 231.513 0 173.635-138.017 316.104-307.2 316.104s-307.2-142.47-307.2-316.104c0-173.635 138.017-316.104 307.2-316.104 26.713 0 53.426 4.452 80.139 8.904l146.922-258.226c8.904-13.357 44.522-8.904 80.139 13.357 31.165 13.357 57.878 44.522 48.974 62.33zM463.026 376.765c-106.852 0-195.896 89.043-195.896 200.348s89.043 200.348 195.896 200.348c106.852 0 195.896-89.043 195.896-200.348 4.452-111.304-84.591-200.348-195.896-200.348z" />
<glyph unicode="&#xe81d;" glyph-name="star-empty" d="M512 870.957l115.757-231.513c13.357-26.713 40.070-48.974 75.687-53.426l253.774-40.070-186.991-178.087c-22.261-22.261-35.617-57.878-26.713-89.043l44.522-253.774-227.061 120.209c-13.357 8.904-31.165 8.904-44.522 8.904-17.809 0-31.165-4.452-44.522-8.904v0 0l-227.061-120.209 44.522 253.774c4.452 31.165-4.452 66.783-31.165 89.043l-186.991 182.539 258.226 35.617c31.165 4.452 62.33 26.713 75.687 53.426l106.852 231.513zM512 928.835c-17.809 0-35.617-8.904-44.522-26.713l-115.757-240.417c-8.904-13.357-22.261-22.261-35.617-26.713l-262.678-40.070c-40.070-8.904-57.878-57.878-26.713-84.591l191.443-186.991c13.357-13.357 17.809-26.713 13.357-44.522l-44.522-262.678c-4.452-31.165 17.809-57.878 48.974-57.878 8.904 0 13.357 0 22.261 4.452l235.965 124.661c8.904 4.452 17.809 4.452 22.261 4.452 8.904 0 17.809 0 22.261-4.452l235.965-124.661c8.904-4.452 13.357-4.452 22.261-4.452 26.713 0 53.426 26.713 48.974 57.878l-44.522 262.678c-4.452 13.357 4.452 31.165 13.357 44.522l191.443 186.991c31.165 31.165 13.357 80.139-26.713 84.591l-262.678 40.070c-13.357 4.452-31.165 13.357-35.617 26.713l-120.209 240.417c-13.357 17.809-31.165 26.713-48.974 26.713v0z" />
<glyph unicode="&#xe81e;" glyph-name="star-full" d="M556.522 902.122l120.209-240.417c8.904-13.357 22.261-22.261 35.617-26.713l262.678-40.070c40.070-4.452 57.878-53.426 26.713-84.591l-191.443-186.991c-13.357-13.357-17.809-26.713-13.357-44.522l44.522-262.678c8.904-40.070-35.617-71.235-71.235-53.426l-235.965 124.661c-13.357 8.904-31.165 8.904-44.522 0l-235.965-124.661c-35.617-17.809-80.139 13.357-71.235 53.426l44.522 262.678c4.452 13.357-4.452 31.165-13.357 44.522l-191.443 186.991c-31.165 26.713-13.357 75.687 26.713 84.591l262.678 40.070c13.357 4.452 31.165 13.357 35.617 26.713l115.757 240.417c22.261 35.617 75.687 35.617 93.496 0z" />
<glyph unicode="&#xe81f;" glyph-name="tate" d="M837.009 318.887c22.261 0 93.496 115.757 66.783 120.209 0 0-31.165 0-62.33-48.974-8.904-13.357-26.713-71.235-4.452-71.235zM569.878 341.148c0 0 17.809 44.522 31.165-17.809 0 0 13.357-102.4 31.165-71.235 40.070 71.235 53.426 155.826 66.783 258.226l4.452 31.165 8.904 75.687c0 0 0 26.713 13.357 26.713 0 0 8.904 4.452 8.904-31.165l-4.452-66.783v-31.165c0 0-4.452-271.583 71.235-244.87 8.904 0-40.070 57.878 26.713 146.922 0 0 53.426 66.783 115.757 40.070 0 0 26.713-8.904 0-53.426 0 0-35.617-66.783-75.687-111.304 0 0 31.165-26.713 120.209 89.043 0 0 8.904 13.357 13.357 22.261 0 0 4.452 8.904 13.357 4.452 0 0 17.809-4.452-13.357-48.974 0 0-93.496-146.922-182.539-115.757 0 0-26.713-26.713-53.426-31.165-4.452 0-26.713-4.452-44.522 35.617 0 0-22.261 44.522-26.713 66.783 0 0-26.713-115.757-75.687-138.017-13.357-4.452-35.617-13.357-53.426 26.713-4.452 8.904-8.904 31.165-8.904 31.165s0 4.452-4.452 0c0 0-62.33-97.948-102.4-102.4-22.261 0-57.878-4.452-35.617 80.139 0 0 31.165 129.113 160.278 169.183 8.904 4.452 40.070 8.904 31.165 0-4.452-4.452-17.809-8.904-35.617-17.809-40.070-26.713-111.304-80.139-93.496-155.826 0-8.904 8.904-22.261 31.165 8.904 0 17.809 40.070 75.687 62.33 124.661zM810.296 746.296c0 0-235.965 31.165-752.417-160.278-22.261-8.904-17.809-8.904-31.165-35.617s-22.261-53.426-4.452-44.522c62.33 31.165 169.183 75.687 227.061 89.043 48.974 8.904 53.426-8.904 53.426-22.261 0-8.904-4.452-89.043-4.452-178.087 0-133.565 13.357-293.843 22.261-311.652 4.452-8.904 35.617 26.713 44.522 40.070s26.713 35.617 13.357 66.783c-22.261 66.783-26.713 262.678-26.713 302.748 0 26.713 4.452 106.852 35.617 133.565s200.348 97.948 418.504 115.757c17.809-4.452 13.357 4.452 4.452 4.452zM609.948 514.783c22.261 17.809 160.278 57.878 195.896 62.33 13.357 4.452 17.809-8.904 0-17.809-93.496-31.165-146.922-62.33-169.183-71.235-26.713-13.357-35.617-26.713-40.070-22.261 0 4.452 0 40.070 13.357 48.974z" />
<glyph unicode="&#xe820;" glyph-name="twitter" d="M988.383 719.583c-35.617-13.357-71.235-26.713-111.304-31.165 40.070 22.261 71.235 57.878 84.591 102.4-35.617-22.261-80.139-35.617-120.209-44.522-35.617 35.617-84.591 57.878-138.017 57.878-106.852 0-191.443-84.591-191.443-186.991 0-13.357 0-31.165 4.452-44.522-160.278 8.904-302.748 84.591-396.243 195.896-17.809-26.713-26.713-57.878-26.713-93.496 0-66.783 35.617-120.209 84.591-155.826-31.165 0-62.33 8.904-89.043 22.261 0 0 0 0 0-4.452 0-89.043 66.783-164.73 155.826-182.539-17.809-4.452-31.165-4.452-48.974-4.452-13.357 0-22.261 0-35.617 4.452 22.261-75.687 93.496-129.113 178.087-129.113-66.783-48.974-146.922-80.139-240.417-80.139-13.357 0-31.165 0-44.522 4.452 84.591-53.426 186.991-84.591 293.843-84.591 351.722 0 547.617 284.939 547.617 534.261 0 8.904 0 17.809 0 22.261 35.617 26.713 71.235 57.878 93.496 97.948z" />
<glyph unicode="&#xe822;" glyph-name="pencil" d="M864 960c88.364 0 160-71.634 160-160 0-36.020-11.91-69.258-32-96l-64-64-224 224 64 64c26.742 20.090 59.978 32 96 32zM64 224l-64-288 288 64 592 592-224 224-592-592zM715.578 596.422l-448-448-55.156 55.156 448 448 55.156-55.156z" />
<glyph unicode="&#xe823;" glyph-name="alert" d="M930.504 741.843c-26.713 75.687-57.878 93.496-84.591 93.496 0 0 0 0 0 0-26.713 0-66.783-13.357-133.565-31.165-138.017-40.070-342.817-102.4-556.522-102.4-48.974 0-89.043-66.783-89.043-155.826s40.070-155.826 89.043-155.826c17.809 0 31.165 0 48.974 0l75.687-293.843c8.904-35.617 40.070-57.878 75.687-57.878h57.878c17.809 0 35.617 8.904 44.522 22.261s8.904 31.165 4.452 48.974l-115.757 267.13c138.017-22.261 267.13-57.878 365.078-84.591 66.783-17.809 111.304-31.165 133.565-31.165 0 0 0 0 0 0 22.261 0 57.878 17.809 84.591 93.496 17.809 53.426 26.713 120.209 26.713 195.896s-8.904 138.017-26.713 191.443v0zM779.13 545.948c0 22.261 0 44.522 4.452 66.783 22.261-4.452 40.070-31.165 40.070-66.783s-17.809-62.33-40.070-66.783c-4.452 22.261-4.452 44.522-4.452 66.783zM111.304 545.948c0 66.783 26.713 111.304 44.522 111.304 48.974 0 102.4 4.452 151.374 8.904-8.904-35.617-17.809-75.687-17.809-120.209s4.452-84.591 17.809-120.209c-48.974 4.452-97.948 8.904-151.374 8.904-17.809 0-44.522 44.522-44.522 111.304zM422.957 87.374c0-4.452 0-8.904 0-8.904s-4.452 0-8.904 0h-57.878c-13.357 0-31.165 13.357-35.617 26.713l-71.235 280.487c13.357 0 31.165-4.452 44.522-4.452l129.113-293.843zM356.174 421.287c-13.357 31.165-22.261 75.687-22.261 129.113 0 48.974 8.904 97.948 22.261 129.113 142.47 22.261 271.583 57.878 365.078 89.043 17.809 4.452 35.617 8.904 53.426 13.357-4.452-8.904-8.904-22.261-13.357-31.165-17.809-53.426-26.713-120.209-26.713-195.896s8.904-142.47 26.713-195.896c4.452-13.357 8.904-22.261 13.357-31.165-17.809 4.452-35.617 8.904-53.426 13.357-93.496 17.809-222.609 57.878-365.078 80.139v0zM885.983 363.409c-17.809-48.974-35.617-62.33-40.070-62.33-8.904 0-26.713 13.357-40.070 62.33-8.904 22.261-13.357 44.522-17.809 71.235 22.261 4.452 40.070 13.357 57.878 35.617 13.357 22.261 22.261 48.974 22.261 75.687s-8.904 57.878-22.261 75.687c-13.357 17.809-35.617 31.165-57.878 35.617 4.452 26.713 8.904 48.974 17.809 71.235 17.809 48.974 35.617 62.33 40.070 62.33 8.904 0 26.713-13.357 40.070-62.33 17.809-48.974 26.713-111.304 26.713-182.539s-8.904-133.565-26.713-182.539v0zM414.052 29.496h-57.878c-35.617 0-71.235 26.713-84.591 62.33l-71.235 289.391c-13.357 0-31.165 0-44.522 0-53.426 0-93.496 71.235-93.496 160.278 0 93.496 40.070 160.278 93.496 160.278 209.252 0 414.052 62.33 552.070 102.4 66.783 17.809 111.304 31.165 138.017 31.165 0 0 0 0 0 0 26.713 0 62.33-17.809 89.043-97.948v0c17.809-53.426 26.713-124.661 26.713-195.896 0-75.687-8.904-142.47-26.713-195.896-26.713-80.139-62.33-97.948-89.043-97.948v0c-26.713 0-66.783 13.357-133.565 31.165v0c-93.496 26.713-218.157 62.33-351.722 84.591l111.304-258.226c8.904-17.809 8.904-40.070-4.452-53.426s-31.165-22.261-53.426-22.261zM845.913 830.887v0c-26.713 0-71.235-13.357-133.565-31.165-138.017-40.070-347.27-102.4-556.522-102.4-48.974 0-84.591-66.783-84.591-151.374s35.617-151.374 84.591-151.374c17.809 0 31.165 0 48.974 0h4.452v-4.452l75.687-293.843c8.904-31.165 40.070-57.878 71.235-57.878h57.878c17.809 0 31.165 8.904 40.070 17.809 8.904 13.357 8.904 26.713 0 44.522l-120.209 280.487h8.904c138.017-22.261 267.13-57.878 365.078-84.591v0c66.783-17.809 106.852-31.165 133.565-31.165v0c22.261 0 53.426 13.357 80.139 89.043 17.809 53.426 26.713 120.209 26.713 195.896 0 71.235-8.904 142.47-26.713 195.896v0c-22.261 71.235-53.426 84.591-75.687 84.591zM414.052 74.017h-57.878c-17.809 0-35.617 13.357-40.070 31.165l-71.235 289.391h8.904c13.357 0 31.165-4.452 44.522-4.452h4.452l124.661-298.296c0-4.452 4.452-8.904 0-13.357 0-4.452-8.904-4.452-13.357-4.452zM258.226 381.217l66.783-271.583c4.452-13.357 17.809-22.261 26.713-22.261h57.878c0 0 0 0 0 0s0 0 0 0v0l-124.661 289.391c-4.452 0-13.357 4.452-26.713 4.452zM845.913 296.626c-13.357 0-31.165 17.809-48.974 66.783-8.904 22.261-13.357 44.522-17.809 71.235v4.452h4.452c22.261 4.452 40.070 13.357 53.426 31.165s22.261 44.522 22.261 71.235c0 26.713-8.904 53.426-22.261 71.235s-31.165 31.165-53.426 31.165h-4.452v4.452c4.452 26.713 8.904 48.974 17.809 71.235 17.809 48.974 35.617 66.783 48.974 66.783s31.165-17.809 48.974-66.783c17.809-48.974 26.713-115.757 26.713-182.539 0-71.235-8.904-133.565-26.713-182.539v0c-17.809-40.070-35.617-57.878-48.974-57.878zM792.487 430.191c4.452-22.261 8.904-44.522 13.357-66.783 17.809-48.974 31.165-57.878 35.617-57.878s17.809 8.904 35.617 57.878v0c17.809 48.974 26.713 111.304 26.713 178.087s-8.904 133.565-26.713 178.087c-17.809 48.974-31.165 57.878-35.617 57.878s-22.261-8.904-35.617-57.878c-4.452-17.809-13.357-40.070-13.357-66.783 22.261-4.452 40.070-17.809 53.426-35.617 17.809-22.261 26.713-48.974 26.713-80.139s-8.904-57.878-26.713-80.139c-13.357-8.904-31.165-22.261-53.426-26.713zM783.583 309.983l-13.357 4.452c-17.809 4.452-35.617 8.904-53.426 13.357-93.496 26.713-218.157 62.33-356.174 84.591l8.904-17.809-31.165 31.165h8.904c-13.357 31.165-17.809 75.687-17.809 120.209 0 48.974 8.904 97.948 22.261 129.113v4.452h4.452c142.47 22.261 271.583 57.878 365.078 89.043 17.809 4.452 35.617 8.904 53.426 13.357l13.357 4.452-4.452-8.904c-4.452-8.904-8.904-22.261-13.357-31.165-17.809-53.426-26.713-120.209-26.713-195.896 0-71.235 8.904-142.47 26.713-195.896 4.452-13.357 8.904-22.261 13.357-31.165v-13.357zM360.626 425.739c142.47-22.261 271.583-57.878 365.078-84.591 13.357-4.452 26.713-8.904 40.070-13.357-4.452 8.904-4.452 13.357-8.904 22.261-17.809 53.426-26.713 124.661-26.713 195.896 0 75.687 8.904 142.47 26.713 195.896 4.452 8.904 4.452 17.809 8.904 22.261-13.357-4.452-26.713-8.904-40.070-13.357-93.496-26.713-222.609-66.783-365.078-89.043-13.357-31.165-17.809-75.687-17.809-120.209-4.452-40.070 4.452-84.591 17.809-115.757zM311.652 421.287h-8.904c-53.426 4.452-102.4 8.904-151.374 8.904-22.261 0-48.974 48.974-48.974 115.757s26.713 115.757 48.974 115.757c48.974 0 97.948 4.452 151.374 8.904h8.904l-4.452-8.904c-8.904-35.617-17.809-75.687-17.809-120.209s4.452-84.591 17.809-120.209h4.452zM298.296 661.704c-48.974-4.452-97.948-8.904-142.47-8.904-13.357 0-40.070-40.070-40.070-106.852s26.713-106.852 40.070-106.852c44.522 0 93.496-4.452 142.47-8.904-8.904 31.165-13.357 71.235-13.357 115.757s4.452 80.139 13.357 115.757zM779.13 474.713v4.452c0 22.261-4.452 44.522-4.452 66.783s0 44.522 4.452 66.783v4.452h4.452c26.713-4.452 44.522-35.617 44.522-71.235 0-40.070-22.261-71.235-44.522-71.235h-4.452zM788.035 608.278c0-17.809-4.452-40.070-4.452-57.878s0-40.070 4.452-57.878c17.809 4.452 31.165 31.165 31.165 57.878s-13.357 48.974-31.165 57.878z" />
<glyph unicode="&#xe824;" glyph-name="share" d="M864 256c-45.16 0-85.92-18.738-115.012-48.83l-431.004 215.502c1.314 8.252 2.016 16.706 2.016 25.328s-0.702 17.076-2.016 25.326l431.004 215.502c29.092-30.090 69.852-48.828 115.012-48.828 88.366 0 160 71.634 160 160s-71.634 160-160 160-160-71.634-160-160c0-8.622 0.704-17.076 2.016-25.326l-431.004-215.504c-29.092 30.090-69.852 48.83-115.012 48.83-88.366 0-160-71.636-160-160 0-88.368 71.634-160 160-160 45.16 0 85.92 18.738 115.012 48.828l431.004-215.502c-1.312-8.25-2.016-16.704-2.016-25.326 0-88.368 71.634-160 160-160s160 71.632 160 160c0 88.364-71.634 160-160 160z" />
<glyph unicode="&#xe825;" glyph-name="question" d="M448 256h128v-128h-128zM704 704c35.346 0 64-28.654 64-64v-192l-192-128h-128v64l192 128v64h-320v128h384zM512 864c-111.118 0-215.584-43.272-294.156-121.844s-121.844-183.038-121.844-294.156c0-111.118 43.272-215.584 121.844-294.156s183.038-121.844 294.156-121.844c111.118 0 215.584 43.272 294.156 121.844s121.844 183.038 121.844 294.156c0 111.118-43.272 215.584-121.844 294.156s-183.038 121.844-294.156 121.844zM512 960v0c282.77 0 512-229.23 512-512s-229.23-512-512-512c-282.77 0-512 229.23-512 512s229.23 512 512 512z" />
<glyph unicode="&#xe826;" glyph-name="info" d="M448 656c0 26.4 21.6 48 48 48h32c26.4 0 48-21.6 48-48v-32c0-26.4-21.6-48-48-48h-32c-26.4 0-48 21.6-48 48v32zM640 192h-256v64h64v192h-64v64h192v-256h64zM512 960c-282.77 0-512-229.23-512-512s229.23-512 512-512 512 229.23 512 512-229.23 512-512 512zM512 32c-229.75 0-416 186.25-416 416s186.25 416 416 416 416-186.25 416-416-186.25-416-416-416z" />
<glyph unicode="&#xe827;" glyph-name="file-pdf" d="M842.012 370.52c-13.648 13.446-43.914 20.566-89.972 21.172-31.178 0.344-68.702-2.402-108.17-7.928-17.674 10.198-35.892 21.294-50.188 34.658-38.462 35.916-70.568 85.772-90.576 140.594 1.304 5.12 2.414 9.62 3.448 14.212 0 0 21.666 123.060 15.932 164.666-0.792 5.706-1.276 7.362-2.808 11.796l-1.882 4.834c-5.894 13.592-17.448 27.994-35.564 27.208l-10.916 0.344c-20.202 0-36.664-10.332-40.986-25.774-13.138-48.434 0.418-120.892 24.98-214.738l-6.288-15.286c-17.588-42.876-39.63-86.060-59.078-124.158l-2.528-4.954c-20.46-40.040-39.026-74.028-55.856-102.822l-17.376-9.188c-1.264-0.668-31.044-16.418-38.028-20.644-59.256-35.38-98.524-75.542-105.038-107.416-2.072-10.17-0.53-23.186 10.014-29.212l16.806-8.458c7.292-3.652 14.978-5.502 22.854-5.502 42.206 0 91.202 52.572 158.698 170.366 77.93 25.37 166.652 46.458 244.412 58.090 59.258-33.368 132.142-56.544 178.142-56.544 8.168 0 15.212 0.78 20.932 2.294 8.822 2.336 16.258 7.368 20.792 14.194 8.926 13.432 10.734 31.932 8.312 50.876-0.72 5.622-5.21 12.574-10.068 17.32zM211.646 145.952c7.698 21.042 38.16 62.644 83.206 99.556 2.832 2.296 9.808 8.832 16.194 14.902-47.104-75.124-78.648-105.066-99.4-114.458zM478.434 760.314c13.566 0 21.284-34.194 21.924-66.254s-6.858-54.56-16.158-71.208c-7.702 24.648-11.426 63.5-11.426 88.904 0 0-0.566 48.558 5.66 48.558v0zM398.852 322.506c9.45 16.916 19.282 34.756 29.33 53.678 24.492 46.316 39.958 82.556 51.478 112.346 22.91-41.684 51.444-77.12 84.984-105.512 4.186-3.542 8.62-7.102 13.276-10.65-68.21-13.496-127.164-29.91-179.068-49.862v0zM828.902 326.348c-4.152-2.598-16.052-4.1-23.708-4.1-24.708 0-55.272 11.294-98.126 29.666 16.468 1.218 31.562 1.838 45.102 1.838 24.782 0 32.12 0.108 56.35-6.072 24.228-6.18 24.538-18.734 20.382-21.332v0zM917.806 730.924c-22.21 30.292-53.174 65.7-87.178 99.704s-69.412 64.964-99.704 87.178c-51.574 37.82-76.592 42.194-90.924 42.194h-496c-44.112 0-80-35.888-80-80v-864c0-44.112 35.886-80 80-80h736c44.112 0 80 35.888 80 80v624c0 14.332-4.372 39.35-42.194 90.924v0zM785.374 785.374c30.7-30.7 54.8-58.398 72.58-81.374h-153.954v153.946c22.982-17.78 50.678-41.878 81.374-72.572v0zM896 16c0-8.672-7.328-16-16-16h-736c-8.672 0-16 7.328-16 16v864c0 8.672 7.328 16 16 16 0 0 495.956 0.002 496 0v-224c0-17.672 14.324-32 32-32h224v-624z" />
<glyph unicode="&#xe900;" glyph-name="user-boxed" d="M0 212.035h57.878v-218.157h-57.878v218.157zM0-6.122v-57.878h276.035v57.878h-218.157zM747.965-6.122v-57.878h276.035v57.878h-57.878zM966.122 212.035h57.878v-218.157h-57.878v218.157zM966.122 960h-218.157v-57.878h218.157v-218.157h57.878v276.035zM0 960v-276.035h57.878v218.157h218.157v57.878h-218.157zM721.252 180.87h-427.409c-31.165 0-53.426 22.261-53.426 53.426 0 0 0 48.974 35.617 97.948 22.261 26.713 48.974 48.974 80.139 62.33 40.070 17.809 89.043 26.713 151.374 26.713-89.043 0-160.278 71.235-160.278 160.278s71.235 160.278 160.278 160.278 160.278-71.235 160.278-160.278-71.235-160.278-160.278-160.278c57.878 0 106.852-8.904 151.374-26.713 35.617-13.357 62.33-35.617 80.139-62.33v0c35.617-44.522 35.617-93.496 35.617-97.948 0-26.713-22.261-53.426-53.426-53.426zM507.548 367.861c-89.043 0-151.374-22.261-186.991-66.783-22.261-31.165-26.713-62.33-26.713-66.783h427.409c0 0 0 31.165-26.713 66.783-31.165 44.522-97.948 66.783-186.991 66.783zM507.548 688.417c-57.878 0-106.852-48.974-106.852-106.852s48.974-106.852 106.852-106.852 106.852 48.974 106.852 106.852-44.522 106.852-106.852 106.852z" />
<glyph unicode="&#xe901;" glyph-name="bell" d="M881.53 189.774c-57.878 44.522-89.043 111.304-89.043 182.539v151.374c0 129.113-84.591 235.965-204.8 267.13v35.617c0 40.070-35.617 75.687-75.687 75.687s-75.687-35.617-75.687-75.687v-35.617c-115.757-31.165-204.8-142.47-204.8-267.13v-151.374c0-71.235-31.165-138.017-89.043-182.539-8.904-4.452 4.452-44.522 13.357-44.522h231.513c0-8.904-4.452-17.809-4.452-26.713 0-71.235 57.878-124.661 124.661-124.661s124.661 57.878 124.661 124.661c0 8.904 0 17.809-4.452 26.713h231.513c8.904 0 31.165 35.617 22.261 44.522z" />
<glyph unicode="&#xe902;" glyph-name="user" d="M721.252 180.87h-427.409c-31.165 0-53.426 22.261-53.426 53.426 0 0 0 48.974 35.617 97.948 22.261 26.713 48.974 48.974 80.139 62.33 40.070 17.809 89.043 26.713 151.374 26.713-89.043 0-160.278 71.235-160.278 160.278s71.235 160.278 160.278 160.278 160.278-71.235 160.278-160.278-71.235-160.278-160.278-160.278c57.878 0 106.852-8.904 151.374-26.713 35.617-13.357 62.33-35.617 80.139-62.33v0c35.617-44.522 35.617-93.496 35.617-97.948 0-26.713-22.261-53.426-53.426-53.426zM507.548 367.861c-89.043 0-151.374-22.261-186.991-66.783-22.261-31.165-26.713-62.33-26.713-66.783h427.409c0 0 0 31.165-26.713 66.783-31.165 44.522-97.948 66.783-186.991 66.783zM507.548 688.417c-57.878 0-106.852-48.974-106.852-106.852s48.974-106.852 106.852-106.852 106.852 48.974 106.852 106.852-44.522 106.852-106.852 106.852z" />
<glyph unicode="&#xe903;" glyph-name="mail-full" d="M481.28 448c15.36-10.24 40.96-10.24 56.32 0l430.080 286.72c-15.36 10.24-30.72 20.48-51.2 20.48h-819.2c-20.48 0-35.84-5.12-51.2-20.48l435.2-286.72zM568.32 401.92c-15.36-10.24-35.84-15.36-56.32-15.36s-40.96 5.12-56.32 15.36l-430.080 286.72c0-5.12 0-5.12 0-10.24v-460.8c0-40.96 35.84-76.8 76.8-76.8h819.2c40.96 0 76.8 35.84 76.8 76.8v460.8c0 5.12 0 5.12 0 10.24l-430.080-286.72z" />
<glyph unicode="&#xe904;" glyph-name="mail-empty" d="M921.6 755.2h-819.2c-40.96 0-76.8-35.84-76.8-76.8v-460.8c0-40.96 35.84-76.8 76.8-76.8h819.2c40.96 0 76.8 35.84 76.8 76.8v460.8c0 40.96-35.84 76.8-76.8 76.8zM921.6 704c0 0 5.12 0 0 0l-378.88-256c-15.36-10.24-40.96-10.24-56.32 0l-384 256c0 0 5.12 0 5.12 0h814.080zM921.6 192h-819.2c-15.36 0-25.6 10.24-25.6 25.6v440.32l378.88-250.88c15.36-10.24 35.84-15.36 56.32-15.36s40.96 5.12 56.32 15.36l378.88 250.88v-440.32c0-15.36-10.24-25.6-25.6-25.6z" />
</font>
</defs>
</svg>
